<?xml version="1.0" standalone="no"?>
<!DOCTYPE svg PUBLIC "-//W3C//DTD SVG 20010904//EN"
 "http://www.w3.org/TR/2001/REC-SVG-20010904/DTD/svg10.dtd">
<svg version="1.0" xmlns="http://www.w3.org/2000/svg"
 width="544.000000pt" height="360.000000pt" viewBox="0 0 544.000000 360.000000"
 preserveAspectRatio="xMidYMid meet">

<g transform="translate(0.000000,360.000000) scale(0.100000,-0.100000)"
fill="#000000" stroke="none">
<path d="M900 3256 c-95 -27 -150 -73 -170 -144 -16 -60 -13 -964 3 -1005 33
-78 141 -137 251 -137 67 0 111 13 168 49 l47 30 20 -35 c20 -34 21 -34 91
-34 l70 0 0 320 0 320 -167 -2 -168 -3 -3 -97 -3 -98 36 0 35 0 0 -123 c0
-129 -5 -147 -45 -147 -45 0 -45 0 -45 477 0 451 0 452 21 464 16 8 28 8 45 0
24 -10 24 -13 24 -146 l0 -135 135 0 135 0 0 148 c0 134 -2 151 -23 187 -28
50 -101 100 -167 114 -67 14 -233 12 -290 -3z"/>
<path d="M1640 3016 c-67 -15 -106 -35 -142 -73 -41 -43 -48 -74 -48 -209 l0
-124 135 0 135 0 0 113 c0 61 4 118 9 125 5 8 21 12 37 10 l29 -3 3 -102 3
-101 -33 -25 c-18 -14 -76 -46 -128 -71 -106 -50 -174 -109 -191 -165 -6 -21
-9 -95 -7 -178 3 -158 11 -178 79 -218 47 -28 240 -29 282 -2 32 21 37 21 37
2 0 -13 17 -15 118 -13 l117 3 0 450 0 450 -23 38 c-13 20 -42 48 -65 61 -75
44 -230 58 -347 32z m158 -723 l-3 -148 -35 0 -35 0 -3 124 c-2 87 1 128 10
138 11 14 43 31 61 32 4 1 6 -65 5 -146z"/>
<path d="M2473 3012 c-42 -15 -53 -16 -53 -5 0 10 -29 13 -140 13 l-140 0 2
-517 3 -518 135 0 135 0 5 435 5 435 30 3 c47 6 55 -16 55 -150 l0 -118 135 0
135 0 0 163 c0 143 -2 166 -20 194 -43 71 -182 103 -287 65z"/>
<path d="M3001 3011 c-71 -25 -102 -49 -128 -101 -20 -39 -23 -59 -23 -172 l0
-129 133 3 132 3 5 119 c4 99 8 121 23 130 12 8 22 8 35 0 14 -9 17 -29 20
-111 l3 -101 -49 -30 c-27 -17 -83 -46 -124 -65 -41 -19 -93 -51 -115 -71 -66
-59 -73 -84 -73 -248 0 -171 10 -200 80 -235 60 -31 226 -33 283 -4 29 15 37
16 37 5 0 -11 24 -14 120 -14 l120 0 0 438 c0 402 -2 440 -19 477 -41 91 -122
125 -295 125 -81 -1 -125 -6 -165 -19z m185 -859 c-9 -10 -23 -12 -40 -8 l-27
7 3 132 3 132 35 17 35 18 3 -142 c2 -113 0 -145 -12 -156z"/>
<path d="M3673 3021 c-51 -13 -96 -44 -118 -81 -19 -33 -20 -54 -23 -422 -2
-252 1 -401 8 -427 27 -99 166 -148 305 -106 27 8 51 12 54 10 10 -11 -21 -56
-45 -65 -14 -6 -81 -10 -150 -10 l-124 0 0 -75 0 -75 214 0 c229 0 275 8 325
53 51 47 51 45 51 642 l0 555 -117 0 c-95 0 -120 -3 -135 -17 -18 -16 -21 -16
-50 2 -35 20 -143 29 -195 16z m215 -173 c17 -17 17 -689 0 -706 -15 -15 -51
-15 -66 0 -9 9 -12 100 -12 349 0 186 3 344 6 353 7 19 55 21 72 4z"/>
<path d="M4420 3017 c-92 -22 -156 -68 -179 -130 -7 -18 -11 -159 -11 -389 0
-346 1 -364 21 -405 37 -77 110 -111 256 -120 195 -12 322 43 353 155 5 20 10
88 10 150 l0 112 -140 0 -139 0 -3 -122 -3 -123 -30 -3 c-47 -6 -55 16 -55
155 l0 123 183 2 182 3 3 203 c1 121 -2 219 -8 243 -16 58 -62 105 -128 130
-71 26 -231 35 -312 16z m164 -173 c3 -9 6 -72 6 -140 l0 -125 -42 3 -43 3 -3
118 c-1 69 2 125 8 137 13 25 65 27 74 4z"/>
<path d="M895 1807 c-105 -28 -155 -74 -175 -162 -8 -35 -9 -176 -4 -478 7
-408 8 -431 28 -471 67 -132 353 -167 494 -59 61 46 72 85 72 276 l0 168 -122
-3 -123 -3 -5 -165 c-5 -156 -6 -165 -25 -168 -50 -6 -49 -14 -53 457 -4 439
-4 439 17 450 15 9 27 9 41 1 18 -10 20 -21 20 -140 l0 -130 120 0 120 0 0
134 c0 73 -5 148 -11 167 -16 47 -56 88 -109 112 -56 25 -211 33 -285 14z"/>
<path d="M2300 1690 l0 -129 -41 14 c-52 19 -150 19 -192 1 -18 -7 -45 -28
-60 -45 l-27 -33 0 -389 c0 -430 1 -436 61 -482 67 -50 193 -63 264 -27 35 18
40 18 56 4 13 -11 36 -14 100 -12 l84 3 3 550 c2 303 0 578 -3 613 l-7 62
-119 0 -119 0 0 -130z m-11 -264 c8 -9 14 -117 18 -338 6 -298 5 -325 -11
-341 -22 -21 -40 -22 -60 -1 -14 13 -16 59 -16 343 0 241 3 330 12 339 16 16
43 15 57 -2z"/>
<path d="M2800 1591 c-55 -11 -118 -36 -144 -59 -10 -9 -27 -35 -37 -57 -17
-36 -19 -71 -19 -370 0 -341 4 -385 42 -438 63 -88 304 -113 437 -45 76 40 91
76 91 236 l0 132 -120 0 -120 0 0 -112 c0 -62 -4 -119 -9 -126 -5 -8 -21 -12
-37 -10 l-29 3 -3 138 -3 137 161 0 160 0 0 209 c0 124 -4 221 -11 238 -17 47
-69 92 -124 109 -62 18 -176 26 -235 15z m118 -163 c8 -8 12 -53 12 -135 l0
-123 -45 0 -45 0 0 116 c0 63 5 124 10 135 12 21 50 25 68 7z"/>
<path d="M3520 1585 c-27 -9 -46 -11 -48 -5 -2 6 -55 10 -123 10 l-119 0 0
-495 0 -495 125 0 124 0 -6 393 c-3 216 -3 405 1 420 5 22 12 27 36 27 42 0
50 -23 50 -149 l0 -111 120 0 120 0 0 151 c0 171 -8 199 -66 239 -45 30 -145
37 -214 15z"/>
<path d="M3992 1582 c-58 -21 -95 -51 -120 -97 -13 -23 -17 -57 -17 -155 0
-177 9 -189 196 -289 63 -34 100 -60 107 -76 6 -14 14 -60 18 -104 6 -72 5
-80 -15 -100 -16 -16 -26 -19 -40 -12 -24 13 -31 52 -31 162 l0 89 -120 0
-120 0 0 -117 c0 -138 10 -181 50 -222 27 -26 52 -38 145 -68 43 -14 199 3
254 28 103 45 121 84 121 251 0 98 -4 131 -19 164 -23 51 -44 67 -171 134 -56
29 -108 63 -115 74 -11 18 -21 124 -16 178 1 22 38 33 56 18 12 -10 15 -38 15
-121 l0 -109 120 0 120 0 0 128 c0 156 -15 192 -95 232 -69 34 -242 40 -323
12z"/>
<path d="M1533 1576 c-70 -18 -126 -56 -149 -103 -18 -35 -19 -63 -18 -383 0
-245 4 -356 13 -382 28 -84 123 -128 276 -128 164 0 243 39 270 135 14 46 15
100 8 398 -8 328 -9 347 -29 374 -26 36 -76 70 -123 84 -56 17 -190 20 -248 5z
m141 -152 c14 -14 16 -56 14 -346 -3 -303 -4 -332 -20 -342 -13 -8 -23 -8 -35
0 -17 10 -18 40 -21 345 -2 305 -1 335 15 347 22 16 28 15 47 -4z"/>
</g>
</svg>
